<?xml version="1.0" encoding="utf-8"?>
<!-- Generator: Adobe Illustrator 17.1.0, SVG Export Plug-In . SVG Version: 6.00 Build 0)  -->
<!DOCTYPE svg PUBLIC "-//W3C//DTD SVG 1.1//EN" "http://www.w3.org/Graphics/SVG/1.1/DTD/svg11.dtd">
<svg version="1.1" xmlns="http://www.w3.org/2000/svg" xmlns:xlink="http://www.w3.org/1999/xlink" x="0px" y="0px"
	 viewBox="0 0 193.6 193.6" enable-background="new 0 0 193.6 193.6" xml:space="preserve">
<g id="圖層_2">
</g>
<g id="圖層_1">
	<path fill="#FF8585" d="M190.6,120.8c0.5-2.1,1-4.2,1.4-6.4v0c0.1-0.5,0.2-1,0.3-1.5c0.3-2,0.6-4,0.8-6.1c0-0.5,0.1-1,0.1-1.4
		c0.2-1.9,0.3-3.8,0.3-5.8c0-0.5,0-0.9,0-1.4c0-0.5,0-1,0-1.5c0-1.4,0-2.7-0.1-4.1c0-0.4,0-0.9-0.1-1.3c-0.1-1.8-0.2-3.6-0.4-5.3
		c0-0.4-0.1-0.8-0.1-1.3c-0.2-1.7-0.5-3.4-0.8-5.1c-0.1-0.4-0.1-0.8-0.2-1.2c-0.3-1.7-0.7-3.3-1.1-5c-0.1-0.4-0.2-0.8-0.3-1.2
		c-0.4-1.6-0.9-3.2-1.4-4.8c-0.1-0.4-0.2-0.8-0.4-1.1c-0.5-1.6-1.1-3.1-1.7-4.6c-0.1-0.4-0.3-0.7-0.4-1.1c-0.6-1.5-1.2-3-1.9-4.5
		c-0.2-0.4-0.3-0.7-0.5-1.1c-0.7-1.5-1.4-2.9-2.2-4.3c-0.2-0.3-0.4-0.7-0.6-1c-0.8-1.4-1.6-2.8-2.5-4.2c-0.2-0.3-0.4-0.7-0.6-1
		c-0.9-1.4-1.8-2.7-2.7-4c-0.2-0.3-0.5-0.6-0.7-1c-1-1.3-2-2.6-3-3.9c-0.3-0.3-0.5-0.6-0.8-0.9c-1.1-1.3-2.1-2.5-3.3-3.7
		c-0.3-0.3-0.5-0.6-0.8-0.9c-1.2-1.2-2.3-2.4-3.5-3.5c-0.3-0.3-0.6-0.6-0.9-0.8c-1.2-1.2-2.5-2.3-3.8-3.4c-0.3-0.3-0.6-0.5-1-0.8
		c-1.3-1.1-2.7-2.2-4.2-3.2c-0.3-0.3-0.7-0.5-1-0.7c-1.5-1-3-2-4.5-3c-0.4-0.2-0.8-0.5-1.1-0.7c-1.6-1-3.2-1.9-4.9-2.8
		c-0.4-0.2-0.8-0.4-1.2-0.6c-1.7-0.9-3.5-1.7-5.3-2.5c-0.4-0.2-0.9-0.4-1.3-0.6c-1.9-0.8-3.9-1.5-5.8-2.2c-0.5-0.2-1-0.3-1.5-0.5
		c-2.1-0.7-4.3-1.3-6.5-1.9c-0.5-0.1-1.1-0.3-1.6-0.4c-2.4-0.6-4.8-1-7.3-1.4c-0.6-0.1-1.3-0.2-1.9-0.3c-2.8-0.4-5.6-0.6-8.4-0.8
		c-0.7,0-1.5-0.1-2.2-0.1c-0.8,0-1.6,0-2.4,0c-11.6,0-22.7,2-33,5.8c-0.4,0.1-0.8,0.3-1.2,0.4c-14.3,5.4-27,14.1-37.2,25.2
		C9.6,48.7,0,71.6,0,96.8c0,52.2,41.3,94.8,93.1,96.7c0.4,0,0.8,0,1.2,0c0.3,0,0.6,0,0.8,0c0.4,0,0.8,0,1.3,0h0.4
		c1.1,0,2.3,0,3.4-0.1c0,0,0,0,0,0c0.4,0,0.8,0,1.2-0.1c0.3,0,0.6,0,1-0.1c0.4,0,0.8,0,1.1-0.1c34.7-2.4,64.4-23.1,79.4-52.5
		c3-5.9,5.5-12.2,7.2-18.8L190.6,120.8z"/>
	<circle fill="#FFFFFF" cx="97" cy="96.8" r="86.3"/>
	<g>
		<path fill="#4A4A4A" d="M110.9,86.6c-3.1,1.5-5.9,4-7.7,7.2c-2,3.4-2.7,7.2-2.4,10.8c-3.5-0.2-7.1,0.5-10.3,2.4
			c-3.4,2-5.9,4.9-7.5,8.2c-2.9-1.9-6.4-3.1-10.1-3.1c-3.9,0-7.6,1.2-10.6,3.4c-1.5-3.1-4-5.9-7.2-7.7c-3.4-2-7.2-2.7-10.8-2.4
			c0.2-3.5-0.5-7.1-2.4-10.3c-2-3.4-4.9-5.9-8.2-7.5c1.9-2.9,3.1-6.4,3.1-10.1c0-3.9-1.2-7.6-3.4-10.6c3.1-1.5,5.9-4,7.7-7.2
			c2-3.4,2.7-7.2,2.4-10.8c3.5,0.2,7.1-0.5,10.3-2.4c3.4-2,6-4.9,7.5-8.2c2.9,1.9,6.4,3.1,10.1,3.1c3.9,0,7.6-1.2,10.6-3.4
			c1.5,3.1,4,5.9,7.2,7.7c3.4,2,7.2,2.7,10.8,2.4c-0.2,3.5,0.5,7.1,2.4,10.3c2,3.4,4.9,5.9,8.2,7.5c-1.9,2.9-3.1,6.4-3.1,10.1
			C107.5,80,108.8,83.6,110.9,86.6z"/>
	</g>
	<g>
		<path fill="#FFB43A" d="M101,84.1c-2.3,1.1-4.4,3-5.7,5.4c-1.5,2.5-2,5.4-1.8,8.1c-2.6-0.2-5.3,0.4-7.7,1.8
			c-2.5,1.5-4.4,3.6-5.6,6.1c-2.2-1.4-4.8-2.3-7.6-2.3c-2.9,0-5.7,0.9-7.9,2.5c-1.1-2.3-3-4.4-5.4-5.7c-2.5-1.5-5.4-2-8.1-1.8
			c0.2-2.6-0.4-5.3-1.8-7.7c-1.5-2.5-3.6-4.4-6.1-5.6c1.4-2.2,2.3-4.8,2.3-7.6c0-2.9-0.9-5.7-2.5-7.9c2.3-1.2,4.4-3,5.7-5.4
			c1.5-2.5,2-5.4,1.8-8.1c2.6,0.2,5.3-0.4,7.7-1.8c2.5-1.5,4.4-3.6,5.6-6.1c2.2,1.4,4.8,2.3,7.6,2.3c2.9,0,5.7-0.9,7.9-2.5
			c1.1,2.3,3,4.4,5.4,5.8c2.5,1.5,5.4,2,8.1,1.8c-0.2,2.6,0.4,5.3,1.8,7.7c1.5,2.5,3.6,4.4,6.1,5.6c-1.4,2.2-2.3,4.8-2.3,7.5
			C98.5,79.2,99.4,81.9,101,84.1z"/>
	</g>
	<g>
		<polygon fill="#4A4A4A" points="30.5,127.2 45.8,95 55.2,101.4 		"/>
	</g>
	<g>
		<path fill="#FFFFFF" d="M72.1,92.2c-8.5,0-15.4-6.9-15.4-15.4c0-8.5,6.9-15.4,15.4-15.4c8.5,0,15.4,6.9,15.4,15.4
			C87.5,85.3,80.6,92.2,72.1,92.2z M72.1,66.9c-5.5,0-9.9,4.5-9.9,9.9c0,5.5,4.5,9.9,9.9,9.9c5.5,0,9.9-4.5,9.9-9.9
			C82,71.3,77.6,66.9,72.1,66.9z"/>
	</g>
	<g>
		<g>
			<polygon fill="#3E3A39" points="141.2,159.4 114.2,136 122.9,128.7 			"/>
		</g>
		<g>
			<path fill="#3E3A39" d="M156.5,118.7c-3.1,1.5-5.9,4-7.7,7.2c-2,3.4-2.7,7.2-2.4,10.8c-3.5-0.2-7.1,0.5-10.3,2.4
				c-3.4,2-5.9,4.9-7.5,8.2c-2.9-1.9-6.4-3.1-10.1-3.1c-3.9,0-7.6,1.2-10.6,3.4c-1.5-3.1-4-5.9-7.2-7.7c-3.4-2-7.2-2.7-10.8-2.4
				c0.2-3.5-0.5-7.1-2.4-10.3c-2-3.4-4.9-5.9-8.2-7.5c1.9-2.9,3.1-6.4,3.1-10.1c0-3.9-1.2-7.6-3.4-10.6c3.1-1.5,5.9-4,7.7-7.2
				c2-3.4,2.7-7.2,2.4-10.8c3.5,0.2,7.1-0.5,10.3-2.4c3.4-2,6-4.9,7.5-8.2c2.9,1.9,6.4,3.1,10.1,3.1c3.9,0,7.6-1.2,10.6-3.4
				c1.5,3.1,4,5.9,7.2,7.7c3.4,2,7.2,2.7,10.8,2.4c-0.2,3.5,0.5,7.1,2.4,10.3c2,3.4,4.9,5.9,8.2,7.5c-1.9,2.9-3.1,6.4-3.1,10.1
				C153.1,112,154.4,115.7,156.5,118.7z"/>
		</g>
		<g>
			<path fill="#C273FF" d="M146.6,116.2c-2.3,1.1-4.4,3-5.7,5.4c-1.5,2.5-2,5.4-1.8,8.1c-2.6-0.2-5.3,0.4-7.7,1.8
				c-2.5,1.5-4.4,3.6-5.6,6.1c-2.2-1.4-4.8-2.3-7.6-2.3c-2.9,0-5.6,0.9-7.9,2.5c-1.1-2.3-3-4.4-5.4-5.7c-2.5-1.5-5.4-2-8.1-1.8
				c0.2-2.6-0.4-5.3-1.8-7.7c-1.5-2.5-3.6-4.4-6.1-5.6c1.4-2.2,2.3-4.8,2.3-7.6c0-2.9-0.9-5.6-2.5-7.9c2.3-1.2,4.4-3,5.7-5.4
				c1.5-2.5,2-5.4,1.8-8.1c2.6,0.2,5.3-0.4,7.7-1.8c2.5-1.5,4.4-3.6,5.6-6.1c2.2,1.4,4.8,2.3,7.5,2.3c2.9,0,5.7-0.9,7.9-2.5
				c1.1,2.3,3,4.4,5.4,5.8c2.5,1.5,5.4,2,8.1,1.8c-0.2,2.6,0.4,5.3,1.8,7.7c1.5,2.5,3.6,4.4,6.1,5.6c-1.4,2.2-2.3,4.8-2.3,7.5
				C144.1,111.2,145,114,146.6,116.2z"/>
		</g>
		<g>
			<g>
				<path fill="#FFFFFF" d="M126.7,120.6c-0.7,0-1.4-0.3-1.9-0.8l-18.1-18.1c-1.1-1.1-1.1-2.8,0-3.9c1.1-1.1,2.8-1.1,3.9,0
					l18.1,18.1c1.1,1.1,1.1,2.8,0,3.9C128.1,120.4,127.4,120.6,126.7,120.6z"/>
			</g>
			<g>
				<path fill="#FFFFFF" d="M108.7,120.6c-0.7,0-1.4-0.3-1.9-0.8c-1.1-1.1-1.1-2.8,0-3.9l18.1-18.1c1.1-1.1,2.8-1.1,3.9,0
					c1.1,1.1,1.1,2.8,0,3.9l-18.1,18.1C110.1,120.4,109.4,120.6,108.7,120.6z"/>
			</g>
		</g>
	</g>
	<g>
		<path fill="#3E3A39" d="M82.4,144.8c-1.6,0.8-3,2-3.9,3.7c-1,1.7-1.4,3.6-1.2,5.5c-1.8-0.1-3.6,0.3-5.2,1.2c-1.7,1-3,2.5-3.8,4.1
			c-1.5-1-3.2-1.5-5.1-1.5c-2,0-3.8,0.6-5.3,1.7c-0.8-1.6-2-3-3.7-3.9c-1.7-1-3.6-1.4-5.5-1.2c0.1-1.8-0.3-3.6-1.2-5.2
			c-1-1.7-2.5-3-4.1-3.8c1-1.5,1.5-3.2,1.5-5.1c0-2-0.6-3.8-1.7-5.3c1.6-0.8,3-2,3.9-3.7c1-1.7,1.4-3.6,1.2-5.5
			c1.8,0.1,3.6-0.3,5.2-1.2c1.7-1,3-2.5,3.8-4.1c1.5,1,3.2,1.5,5.1,1.5c2,0,3.8-0.6,5.3-1.7c0.8,1.6,2,3,3.7,3.9
			c1.7,1,3.6,1.4,5.5,1.2c-0.1,1.8,0.3,3.6,1.2,5.2c1,1.7,2.5,3,4.1,3.8c-1,1.5-1.5,3.2-1.5,5.1C80.7,141.5,81.3,143.3,82.4,144.8z"
			/>
	</g>
	<g>
		<path fill="#97D457" d="M74.5,142.8c-0.9,0.5-1.8,1.2-2.3,2.2c-0.6,1-0.8,2.2-0.7,3.3c-1-0.1-2.1,0.2-3.1,0.7
			c-1,0.6-1.8,1.5-2.3,2.5c-0.9-0.6-1.9-0.9-3.1-0.9c-1.2,0-2.3,0.4-3.2,1c-0.5-0.9-1.2-1.8-2.2-2.3c-1-0.6-2.2-0.8-3.3-0.7
			c0.1-1-0.2-2.1-0.7-3.1c-0.6-1-1.5-1.8-2.5-2.2c0.6-0.9,0.9-1.9,0.9-3.1c0-1.2-0.4-2.3-1-3.2c0.9-0.5,1.8-1.2,2.3-2.2
			c0.6-1,0.8-2.2,0.7-3.3c1,0.1,2.1-0.2,3.1-0.7c1-0.6,1.8-1.5,2.3-2.5c0.9,0.6,1.9,0.9,3.1,0.9c1.2,0,2.3-0.4,3.2-1
			c0.5,0.9,1.2,1.8,2.2,2.3c1,0.6,2.2,0.8,3.3,0.7c-0.1,1,0.2,2.1,0.7,3.1c0.6,1,1.5,1.8,2.5,2.3c-0.6,0.9-0.9,1.9-0.9,3.1
			C73.5,140.8,73.8,141.9,74.5,142.8z"/>
	</g>
	<g>
		<g>
			<path fill="#3E3A39" d="M137.3,35.5c-0.5,1.4-0.6,3-0.1,4.5c0.4,1.6,1.4,3,2.6,4c-1.1,1-2,2.3-2.4,3.9c-0.4,1.6-0.3,3.3,0.2,4.7
				c-1.5,0.3-2.9,1-4,2.1c-1.2,1.2-1.9,2.7-2.2,4.2c-1.4-0.5-3-0.6-4.5-0.1c-1.6,0.4-3,1.4-4,2.6c-1-1.1-2.3-2-3.9-2.4
				c-1.6-0.4-3.3-0.3-4.7,0.2c-0.3-1.5-1-2.9-2.1-4c-1.2-1.2-2.7-1.9-4.2-2.2c0.5-1.4,0.6-3,0.1-4.5c-0.4-1.6-1.4-3-2.6-4
				c1.1-1,2-2.3,2.4-3.9c0.4-1.6,0.3-3.3-0.2-4.7c1.5-0.3,2.9-1,4-2.1c1.2-1.2,1.9-2.7,2.2-4.2c1.4,0.5,3,0.6,4.5,0.1
				c1.6-0.4,3-1.4,4-2.6c1,1.1,2.3,2,3.9,2.4c1.6,0.4,3.3,0.3,4.7-0.2c0.3,1.5,1,2.9,2.1,4C134.2,34.5,135.7,35.2,137.3,35.5z"/>
		</g>
		<g>
			<path fill="#FFD622" d="M130.7,39.4c-0.3,0.8-0.3,1.7-0.1,2.5c0.2,0.9,0.8,1.7,1.4,2.2c-0.6,0.5-1.1,1.3-1.3,2.1
				c-0.2,0.9-0.2,1.8,0.1,2.6c-0.8,0.2-1.6,0.6-2.2,1.2c-0.7,0.7-1.1,1.5-1.2,2.3c-0.8-0.3-1.7-0.3-2.5-0.1
				c-0.9,0.2-1.7,0.8-2.2,1.4c-0.5-0.6-1.3-1.1-2.1-1.3c-0.9-0.2-1.8-0.2-2.6,0.1c-0.2-0.8-0.6-1.6-1.2-2.2
				c-0.7-0.7-1.5-1.1-2.3-1.2c0.3-0.8,0.3-1.7,0.1-2.5c-0.2-0.9-0.8-1.7-1.4-2.2c0.6-0.5,1.1-1.3,1.3-2.1c0.2-0.9,0.2-1.8-0.1-2.6
				c0.8-0.2,1.6-0.6,2.2-1.2c0.7-0.7,1.1-1.5,1.2-2.3c0.8,0.3,1.7,0.3,2.5,0.1c0.9-0.2,1.7-0.8,2.2-1.4c0.5,0.6,1.3,1.1,2.1,1.3
				c0.9,0.2,1.8,0.2,2.6-0.1c0.2,0.8,0.6,1.6,1.2,2.2C129,38.8,129.9,39.2,130.7,39.4z"/>
		</g>
	</g>
	<g>
		<g>
			<path fill="#FF4747" d="M193.6,34.1v61.4c0,1.3-0.7,2.4-1.8,3.1c-0.5,0.3-1.2,0.5-1.8,0.5c-0.6,0-1.2-0.2-1.8-0.5l-53.2-30.7
				c-1.1-0.6-1.8-1.8-1.8-3.1c0-1.3,0.7-2.4,1.8-3.1L188.3,31c0.5-0.3,1.2-0.5,1.8-0.5c0.6,0,1.2,0.2,1.8,0.5
				C192.9,31.6,193.6,32.8,193.6,34.1z"/>
		</g>
		<path fill="#FFFFFF" d="M171.1,73.9c-2.7,0-4.9-0.7-6.5-2.2c-0.2-0.2-0.3-0.5-0.3-0.8c0-0.3,0.1-0.5,0.2-0.7l1.2-1.6
			c0.1-0.2,0.3-0.3,0.6-0.4c0.3,0,0.5,0,0.7,0.2c1.2,0.9,2.4,1.4,3.6,1.4c1,0,1.8-0.2,2.3-0.6c0.6-0.4,0.9-1,0.9-1.8
			c0-0.9-0.3-1.6-0.9-2c-0.6-0.5-1.8-0.7-3.4-0.8c-0.3,0-0.5-0.1-0.7-0.3c-0.2-0.2-0.3-0.4-0.3-0.7v-1.6c0-0.3,0.1-0.5,0.3-0.7
			c0.2-0.2,0.4-0.3,0.7-0.3c1.3-0.1,2.3-0.4,2.9-0.8c0.6-0.5,0.8-1.1,0.8-1.9c0-0.7-0.2-1.3-0.6-1.6c-0.4-0.4-1-0.6-1.8-0.6
			c-1,0-2,0.4-3,1.1c-0.2,0.2-0.5,0.2-0.7,0.2c-0.3,0-0.5-0.1-0.6-0.3l-1.3-1.6c-0.2-0.2-0.3-0.4-0.2-0.7c0-0.3,0.2-0.5,0.4-0.6
			c1.8-1.3,3.7-2,5.7-2c2.2,0,3.9,0.5,5.2,1.5c1.3,1,1.9,2.4,1.9,4.3c0,2.1-1.1,3.7-3.3,4.6c0,0-0.1,0.1-0.1,0.1c0,0,0,0.1,0.1,0.1
			c1.2,0.4,2.2,1,2.9,1.8c0.7,0.9,1.1,1.9,1.1,3.2c0,1.3-0.4,2.4-1.1,3.3c-0.7,0.9-1.6,1.6-2.8,2.1
			C173.8,73.7,172.5,73.9,171.1,73.9z"/>
	</g>
</g>
</svg>
