<?xml version="1.0" encoding="utf-8"?>
<!-- Generator: Adobe Illustrator 17.1.0, SVG Export Plug-In . SVG Version: 6.00 Build 0)  -->
<!DOCTYPE svg PUBLIC "-//W3C//DTD SVG 1.1//EN" "http://www.w3.org/Graphics/SVG/1.1/DTD/svg11.dtd">
<svg version="1.1" xmlns="http://www.w3.org/2000/svg" xmlns:xlink="http://www.w3.org/1999/xlink" x="0px" y="0px"
	 viewBox="0 0 193.6 193.6" enable-background="new 0 0 193.6 193.6" xml:space="preserve">
<g id="圖層_2">
</g>
<g id="圖層_1">
	<g>
		<path fill="#FF8585" d="M190.6,120.8c0.5-2.1,1-4.2,1.4-6.4v0c0.1-0.5,0.2-1,0.3-1.5c0.3-2,0.6-4,0.8-6.1c0-0.5,0.1-1,0.1-1.4
			c0.2-1.9,0.3-3.8,0.3-5.8c0-0.5,0-0.9,0-1.4c0-0.5,0-1,0-1.5c0-1.4,0-2.7-0.1-4.1c0-0.4,0-0.9-0.1-1.3c-0.1-1.8-0.2-3.6-0.4-5.3
			c0-0.4-0.1-0.8-0.1-1.3c-0.2-1.7-0.5-3.4-0.8-5.1c-0.1-0.4-0.1-0.8-0.2-1.2c-0.3-1.7-0.7-3.3-1.1-5c-0.1-0.4-0.2-0.8-0.3-1.2
			c-0.4-1.6-0.9-3.2-1.4-4.8c-0.1-0.4-0.2-0.8-0.4-1.1c-0.5-1.6-1.1-3.1-1.7-4.6c-0.1-0.4-0.3-0.7-0.4-1.1c-0.6-1.5-1.2-3-1.9-4.5
			c-0.2-0.4-0.3-0.7-0.5-1.1c-0.7-1.5-1.4-2.9-2.2-4.3c-0.2-0.3-0.4-0.7-0.6-1c-0.8-1.4-1.6-2.8-2.5-4.2c-0.2-0.3-0.4-0.7-0.6-1
			c-0.9-1.4-1.8-2.7-2.7-4c-0.2-0.3-0.5-0.6-0.7-1c-1-1.3-2-2.6-3-3.9c-0.3-0.3-0.5-0.6-0.8-0.9c-1.1-1.3-2.1-2.5-3.3-3.7
			c-0.3-0.3-0.5-0.6-0.8-0.9c-1.2-1.2-2.3-2.4-3.5-3.5c-0.3-0.3-0.6-0.6-0.9-0.8c-1.2-1.2-2.5-2.3-3.8-3.4c-0.3-0.3-0.6-0.5-1-0.8
			c-1.3-1.1-2.7-2.2-4.1-3.2c-0.3-0.3-0.7-0.5-1-0.7c-1.5-1-3-2-4.5-3c-0.4-0.2-0.8-0.5-1.1-0.7c-1.6-1-3.2-1.9-4.9-2.8
			c-0.4-0.2-0.8-0.4-1.2-0.6c-1.7-0.9-3.5-1.7-5.3-2.5c-0.4-0.2-0.9-0.4-1.3-0.6c-1.9-0.8-3.9-1.5-5.8-2.2c-0.5-0.2-1-0.3-1.5-0.5
			c-2.1-0.7-4.3-1.3-6.5-1.9c-0.5-0.1-1.1-0.3-1.6-0.4c-2.4-0.6-4.8-1-7.3-1.4c-0.6-0.1-1.3-0.2-1.9-0.3c-2.8-0.4-5.6-0.6-8.4-0.8
			c-0.7,0-1.5-0.1-2.2-0.1c-0.8,0-1.6,0-2.4,0c-11.6,0-22.7,2-33,5.8c-0.4,0.1-0.8,0.3-1.2,0.4c-14.3,5.4-27,14.1-37.2,25.2
			C9.6,48.7,0,71.6,0,96.8c0,52.2,41.3,94.8,93.1,96.7c0.4,0,0.8,0,1.2,0c0.3,0,0.6,0,0.8,0c0.4,0,0.8,0,1.3,0h0.4
			c1.1,0,2.3,0,3.4-0.1c0,0,0,0,0,0c0.4,0,0.8,0,1.2-0.1c0.3,0,0.6,0,1-0.1c0.4,0,0.8,0,1.1-0.1c34.7-2.4,64.4-23.1,79.4-52.5
			c3-5.9,5.5-12.2,7.2-18.8L190.6,120.8z"/>
		<path fill="#FFFFFF" d="M183.1,96.8c0,42.9-31.4,78.5-72.4,85.1c-4.5,0.7-9.1,1.1-13.9,1.1c-0.9,0-1.9,0-2.8,0
			c-5.7-0.2-11.3-0.9-16.7-2.2c-5.8-1.3-11.4-3.3-16.7-5.7c-6-2.8-11.6-6.2-16.7-10.2c-6.3-4.9-11.9-10.7-16.7-17.1
			c-10.5-14.3-16.7-31.9-16.7-51c0-19.1,6.2-36.7,16.7-51c4.7-6.5,10.4-12.2,16.7-17.1c5.1-4,10.7-7.4,16.7-10.2
			c5.3-2.5,10.9-4.4,16.7-5.7c5.4-1.2,11-2,16.7-2.2c0.9,0,1.9,0,2.8,0c4.7,0,9.3,0.4,13.9,1.1C151.7,18.3,183.1,53.9,183.1,96.8z"
			/>
		<linearGradient id="SVGID_1_" gradientUnits="userSpaceOnUse" x1="110.6572" y1="96.8033" x2="183.0615" y2="96.8033">
			<stop  offset="5.235600e-03" style="stop-color:#4A4A4A"/>
			<stop  offset="7.060680e-02" style="stop-color:#484848"/>
			<stop  offset="0.5114" style="stop-color:#413D3D"/>
			<stop  offset="0.9948" style="stop-color:#3E3A39"/>
		</linearGradient>
		<path fill="url(#SVGID_1_)" d="M183.1,96.8c0,42.9-31.4,78.5-72.4,85.1V11.7C151.7,18.3,183.1,53.9,183.1,96.8z"/>
		<g>
			<path fill="#FF4747" d="M193.6,34.1v61.4c0,1.3-0.7,2.4-1.8,3.1c-0.5,0.3-1.2,0.5-1.8,0.5c-0.6,0-1.2-0.2-1.8-0.5l-53.2-30.7
				c-1.1-0.6-1.8-1.8-1.8-3.1c0-1.3,0.7-2.4,1.8-3.1L188.3,31c0.5-0.3,1.2-0.5,1.8-0.5c0.6,0,1.2,0.2,1.8,0.5
				C192.9,31.6,193.6,32.8,193.6,34.1z"/>
		</g>
		<path fill="#FFFFFF" d="M165.3,73.5c-0.3,0-0.5-0.1-0.7-0.3c-0.2-0.2-0.3-0.4-0.3-0.7v-0.9c0-0.6,0.2-1.2,0.7-1.6
			c2.7-2.4,4.7-4.5,6-6.3c1.3-1.7,2-3.3,2-4.6c0-0.9-0.2-1.7-0.7-2.2c-0.5-0.5-1.1-0.8-2-0.8c-0.9,0-1.9,0.4-2.8,1.3
			c-0.2,0.2-0.4,0.3-0.7,0.3c-0.3,0-0.5-0.1-0.7-0.3l-1.3-1.3c-0.2-0.2-0.3-0.4-0.3-0.7c0-0.3,0.1-0.5,0.3-0.7
			c0.9-0.9,1.9-1.5,2.8-1.9c1-0.4,2.1-0.6,3.4-0.6c2,0,3.7,0.6,4.9,1.8c1.3,1.2,1.9,2.8,1.9,4.8c0,2.9-2.1,6.5-6.2,10.7
			c0,0,0,0,0,0.1c0,0,0,0,0,0c1.3-0.2,2.4-0.3,3.3-0.3h2.9c0.3,0,0.5,0.1,0.7,0.3s0.3,0.4,0.3,0.7v2.2c0,0.3-0.1,0.5-0.3,0.7
			s-0.4,0.3-0.7,0.3H165.3z"/>
		<g>
			<path fill="#FF8585" d="M36.9,51.7v90.1c-9.3-12.6-14.7-28.2-14.7-45.1C22.2,79.9,27.7,64.4,36.9,51.7z"/>
			<path fill="#FFB43A" d="M51.7,36.6V157c-5.6-4.3-10.6-9.4-14.7-15.2V51.7C41.1,46,46.1,40.9,51.7,36.6z"/>
			<path fill="#FFD622" d="M66.4,27.6V166c-5.3-2.4-10.2-5.5-14.7-9V36.6C56.2,33.1,61.2,30,66.4,27.6z"/>
			<path fill="#97D457" d="M81.2,22.5v148.5c-5.1-1.2-10.1-2.9-14.7-5.1V27.6C71.1,25.4,76,23.7,81.2,22.5z"/>
			<path fill="#69AAF5" d="M95.9,20.6V173c-5.1-0.2-10-0.8-14.7-1.9V22.5C85.9,21.4,90.9,20.8,95.9,20.6z"/>
			<path fill="#C273FF" d="M110.7,21.6v150.5c-4,0.6-8.1,1-12.2,1c-0.8,0-1.7,0-2.5,0V20.6c0.8,0,1.7,0,2.5,0
				C102.6,20.6,106.7,20.9,110.7,21.6z"/>
		</g>
		<g>
			<path fill="#FFFFFF" d="M73.8,98.7c-2.9,0-5.3-2.4-5.3-5.3v-3.9c0-2.9,2.4-5.3,5.3-5.3c2.9,0,5.3,2.4,5.3,5.3v3.9
				C79.1,96.4,76.7,98.7,73.8,98.7z"/>
		</g>
		<g>
			<path fill="#FFFFFF" d="M44.3,98.7c-2.9,0-5.3-2.4-5.3-5.3v-3.9c0-2.9,2.4-5.3,5.3-5.3s5.3,2.4,5.3,5.3v3.9
				C49.6,96.4,47.2,98.7,44.3,98.7z"/>
		</g>
		<g>
			<path fill="#FFFFFF" d="M59.1,126.6c-1.7,0-3.3-0.8-4.3-2.3c-1.7-2.4-1.1-5.7,1.3-7.3l14.7-10.2c2.4-1.7,5.7-1.1,7.3,1.3
				c1.7,2.4,1.1,5.7-1.3,7.3l-14.7,10.2C61.1,126.3,60.1,126.6,59.1,126.6z"/>
		</g>
	</g>
</g>
</svg>
