<?xml version="1.0" encoding="utf-8"?>
<!-- Generator: Adobe Illustrator 17.1.0, SVG Export Plug-In . SVG Version: 6.00 Build 0)  -->
<!DOCTYPE svg PUBLIC "-//W3C//DTD SVG 1.1//EN" "http://www.w3.org/Graphics/SVG/1.1/DTD/svg11.dtd">
<svg version="1.1" xmlns="http://www.w3.org/2000/svg" xmlns:xlink="http://www.w3.org/1999/xlink" x="0px" y="0px"
	 viewBox="0 0 193.6 193.6" enable-background="new 0 0 193.6 193.6" xml:space="preserve">
<g id="圖層_2">
</g>
<g id="圖層_1">
	<g>
		<path fill="#FF8585" d="M190.6,120.8c0.5-2.1,1-4.2,1.4-6.4v0c0.1-0.5,0.2-1,0.3-1.5c0.3-2,0.6-4,0.8-6.1c0-0.5,0.1-1,0.1-1.4
			c0.2-1.9,0.3-3.8,0.3-5.8c0-0.5,0-0.9,0-1.4c0-0.5,0-1,0-1.5c0-1.4,0-2.7-0.1-4.1c0-0.4,0-0.9-0.1-1.3c-0.1-1.8-0.2-3.6-0.4-5.3
			c0-0.4-0.1-0.8-0.1-1.3c-0.2-1.7-0.5-3.4-0.8-5.1c-0.1-0.4-0.1-0.8-0.2-1.2c-0.3-1.7-0.7-3.3-1.1-5c-0.1-0.4-0.2-0.8-0.3-1.2
			c-0.4-1.6-0.9-3.2-1.4-4.8c-0.1-0.4-0.2-0.8-0.4-1.1c-0.5-1.6-1.1-3.1-1.7-4.6c-0.1-0.4-0.3-0.7-0.4-1.1c-0.6-1.5-1.3-3-1.9-4.5
			c-0.2-0.4-0.3-0.7-0.5-1.1c-0.7-1.5-1.4-2.9-2.2-4.3c-0.2-0.3-0.4-0.7-0.6-1c-0.8-1.4-1.6-2.8-2.5-4.2c-0.2-0.3-0.4-0.7-0.6-1
			c-0.9-1.4-1.8-2.7-2.7-4c-0.2-0.3-0.5-0.6-0.7-1c-1-1.3-2-2.6-3-3.9c-0.3-0.3-0.5-0.6-0.8-0.9c-1.1-1.3-2.1-2.5-3.3-3.7
			c-0.3-0.3-0.5-0.6-0.8-0.9c-1.2-1.2-2.3-2.4-3.5-3.5c-0.3-0.3-0.6-0.6-0.9-0.8c-1.2-1.2-2.5-2.3-3.8-3.4c-0.3-0.3-0.6-0.5-1-0.8
			c-1.3-1.1-2.7-2.2-4.2-3.2c-0.3-0.3-0.7-0.5-1-0.7c-1.5-1-3-2-4.5-3c-0.4-0.2-0.8-0.5-1.1-0.7c-1.6-1-3.2-1.9-4.9-2.8
			c-0.4-0.2-0.8-0.4-1.2-0.6c-1.7-0.9-3.5-1.7-5.3-2.5c-0.4-0.2-0.9-0.4-1.3-0.6c-1.9-0.8-3.9-1.5-5.8-2.2c-0.5-0.2-1-0.3-1.5-0.5
			c-2.1-0.7-4.3-1.3-6.5-1.9c-0.5-0.1-1.1-0.3-1.6-0.4c-2.4-0.6-4.8-1-7.3-1.4c-0.6-0.1-1.3-0.2-1.9-0.3c-2.8-0.4-5.6-0.6-8.4-0.8
			c-0.7,0-1.5-0.1-2.2-0.1c-0.8,0-1.6,0-2.4,0c-11.6,0-22.7,2-33,5.8c-0.4,0.1-0.8,0.3-1.2,0.4c-14.3,5.4-27,14.1-37.2,25.2
			C9.6,48.7,0,71.6,0,96.8c0,52.2,41.3,94.8,93.1,96.7c0.4,0,0.8,0,1.2,0c0.3,0,0.6,0,0.8,0c0.4,0,0.8,0,1.3,0h0.4
			c1.1,0,2.3,0,3.4-0.1c0,0,0,0,0,0c0.4,0,0.8,0,1.2-0.1c0.3,0,0.6,0,1-0.1c0.4,0,0.8,0,1.1-0.1c34.7-2.4,64.4-23.1,79.4-52.5
			c3-5.9,5.5-12.2,7.2-18.8L190.6,120.8z"/>
		<radialGradient id="SVGID_1_" cx="96.8043" cy="96.8033" r="86.2553" gradientUnits="userSpaceOnUse">
			<stop  offset="0" style="stop-color:#DCDDDD"/>
			<stop  offset="0.1026" style="stop-color:#EBEBEB"/>
			<stop  offset="0.2446" style="stop-color:#F6F7F7"/>
			<stop  offset="0.4447" style="stop-color:#FDFDFD"/>
			<stop  offset="1" style="stop-color:#FFFFFF"/>
		</radialGradient>
		<circle fill="url(#SVGID_1_)" cx="96.8" cy="96.8" r="86.3"/>
		<g>
			<path fill="#DCDDDD" d="M96.2,162.7c-36.2,0-65.7-29.5-65.7-65.7s29.5-65.7,65.7-65.7c36.2,0,65.7,29.5,65.7,65.7
				S132.4,162.7,96.2,162.7z M96.2,33.1c-35.2,0-63.9,28.7-63.9,63.9s28.7,63.9,63.9,63.9c35.2,0,63.9-28.7,63.9-63.9
				S131.4,33.1,96.2,33.1z"/>
		</g>
		<g>
			<g>
				<path fill="#FF4747" d="M193.6,34.1v61.4c0,1.3-0.7,2.4-1.8,3.1c-0.5,0.3-1.2,0.5-1.8,0.5c-0.6,0-1.2-0.2-1.8-0.5l-53.2-30.7
					c-1.1-0.6-1.8-1.8-1.8-3.1c0-1.3,0.7-2.4,1.8-3.1L188.3,31c0.5-0.3,1.2-0.5,1.8-0.5c0.6,0,1.2,0.2,1.8,0.5
					C192.9,31.6,193.6,32.8,193.6,34.1z"/>
			</g>
			<path fill="#FFFFFF" d="M167.5,73.5c-0.3,0-0.5-0.1-0.7-0.3c-0.2-0.2-0.3-0.4-0.3-0.7v-2.1c0-0.3,0.1-0.5,0.3-0.7
				c0.2-0.2,0.4-0.3,0.7-0.3h3.3c0.1,0,0.1,0,0.1-0.1V57.7c0-0.1,0-0.1-0.1-0.1h-2.7c-0.3,0-0.5-0.1-0.7-0.3
				c-0.2-0.2-0.3-0.4-0.3-0.7v-1.2c0-0.3,0.1-0.5,0.3-0.7c0.2-0.2,0.4-0.4,0.7-0.4c1.3-0.3,2.4-0.7,3.4-1.2c0.6-0.3,1.2-0.5,1.8-0.5
				h1.7c0.3,0,0.5,0.1,0.7,0.3c0.2,0.2,0.3,0.4,0.3,0.7v15.7c0,0.1,0,0.1,0.1,0.1h2.7c0.3,0,0.5,0.1,0.7,0.3
				c0.2,0.2,0.3,0.4,0.3,0.7v2.1c0,0.3-0.1,0.5-0.3,0.7c-0.2,0.2-0.4,0.3-0.7,0.3H167.5z"/>
		</g>
		<g>
			<circle fill="#4A4A4A" cx="96" cy="96.2" r="11.7"/>
			<path fill="#4A4A4A" d="M102.8,92.4c0,3.6-2.9,6.5-6.5,6.5l0,0c-3.6,0-6.5-2.9-6.5-6.5v-54c0-3.6,2.9-6.5,6.5-6.5l0,0
				c3.6,0,6.5,2.9,6.5,6.5V92.4z"/>
			<path fill="#4A4A4A" d="M123.5,78c2.6-2.6,2.6-6.7,0-9.3l0,0c-2.6-2.6-6.7-2.6-9.3,0L91.9,91.1c-2.6,2.6-2.6,6.7,0,9.3l0,0
				c2.6,2.6,6.7,2.6,9.3,0L123.5,78z"/>
			<circle fill="#69AAF5" cx="96" cy="96.2" r="6.1"/>
		</g>
		<g>
			<g>
				<g>
					<path fill="#C273FF" d="M52.4,57.1C52.4,57.1,52.4,57.1,52.4,57.1c-1.3,0-2.3-1-2.3-2.3l0-6.5c0-1.3,1-2.3,2.3-2.3l0,0
						c1.3,0,2.3,1,2.3,2.3l0,6.5C54.7,56,53.7,57.1,52.4,57.1z"/>
				</g>
				<g>
					<path fill="#C273FF" d="M52.4,50.6h-6.5c-1.3,0-2.3-1-2.3-2.3s1-2.3,2.3-2.3h6.5c1.3,0,2.3,1,2.3,2.3S53.7,50.6,52.4,50.6z"/>
				</g>
			</g>
			<g>
				<g>
					<path fill="#69AAF5" d="M35.8,100.1c-0.6,0-1.2-0.2-1.7-0.7l-4.6-4.6c-0.9-0.9-0.9-2.4,0-3.3c0.9-0.9,2.4-0.9,3.3,0l4.6,4.6
						c0.9,0.9,0.9,2.4,0,3.3C37,99.9,36.4,100.1,35.8,100.1z"/>
				</g>
				<g>
					<path fill="#69AAF5" d="M26.6,100.1c-0.6,0-1.2-0.2-1.7-0.7c-0.9-0.9-0.9-2.4,0-3.3l4.6-4.6c0.9-0.9,2.4-0.9,3.3,0
						c0.9,0.9,0.9,2.4,0,3.3l-4.6,4.6C27.8,99.9,27.2,100.1,26.6,100.1z"/>
				</g>
			</g>
			<g>
				<g>
					<path fill="#97D457" d="M54.5,142.2H48c-1.3,0-2.3-1-2.3-2.3s1-2.3,2.3-2.3h6.5c1.3,0,2.3,1,2.3,2.3S55.8,142.2,54.5,142.2z"/>
				</g>
				<g>
					<path fill="#97D457" d="M48,148.7c-1.3,0-2.3-1-2.3-2.3v-6.5c0-1.3,1-2.3,2.3-2.3c1.3,0,2.3,1,2.3,2.3v6.5
						C50.4,147.7,49.3,148.7,48,148.7z"/>
				</g>
			</g>
			<g>
				<g>
					<path fill="#FFD622" d="M92.9,163.3c-0.6,0-1.2-0.2-1.7-0.7c-0.9-0.9-0.9-2.4,0-3.3l4.6-4.6c0.9-0.9,2.4-0.9,3.3,0
						s0.9,2.4,0,3.3l-4.6,4.6C94.1,163.1,93.5,163.3,92.9,163.3z"/>
				</g>
				<g>
					<path fill="#FFD622" d="M97.5,168c-0.6,0-1.2-0.2-1.7-0.7l-4.6-4.6c-0.9-0.9-0.9-2.4,0-3.3c0.9-0.9,2.4-0.9,3.3,0l4.6,4.6
						c0.9,0.9,0.9,2.4,0,3.3C98.7,167.7,98.1,168,97.5,168z"/>
				</g>
			</g>
			<g>
				<g>
					<path fill="#FFB43A" d="M139.7,146.6c-1.3,0-2.3-1-2.3-2.3v-6.5c0-1.3,1-2.3,2.3-2.3c1.3,0,2.3,1,2.3,2.3v6.5
						C142,145.5,140.9,146.6,139.7,146.6z"/>
				</g>
				<g>
					<path fill="#FFB43A" d="M146.2,146.6h-6.5c-1.3,0-2.3-1-2.3-2.3c0-1.3,1-2.3,2.3-2.3h6.5c1.3,0,2.3,1,2.3,2.3
						C148.5,145.5,147.5,146.6,146.2,146.6z"/>
				</g>
			</g>
			<g>
				<g>
					<path fill="#FF8585" d="M160.8,101.6c-0.6,0-1.2-0.2-1.7-0.7l-4.6-4.6c-0.9-0.9-0.9-2.4,0-3.3c0.9-0.9,2.4-0.9,3.3,0l4.6,4.6
						c0.9,0.9,0.9,2.4,0,3.3C162,101.4,161.4,101.6,160.8,101.6z"/>
				</g>
				<g>
					<path fill="#FF8585" d="M160.8,101.6c-0.6,0-1.2-0.2-1.7-0.7c-0.9-0.9-0.9-2.4,0-3.3l4.6-4.6c0.9-0.9,2.4-0.9,3.3,0
						c0.9,0.9,0.9,2.4,0,3.3l-4.6,4.6C162,101.4,161.4,101.6,160.8,101.6z"/>
				</g>
			</g>
		</g>
	</g>
</g>
</svg>
